<?xml version="1.0" encoding="UTF-8"?><svg id="Layer_2" xmlns="http://www.w3.org/2000/svg" viewBox="0 0 376.61 386.95"><defs><style>.cls-1{fill:#f7550a;}.cls-1,.cls-2,.cls-3,.cls-4,.cls-5{stroke-width:0px;}.cls-2{fill:#001760;}.cls-3{fill:#000662;}.cls-4{fill:#fff;}.cls-5{fill:#f7f7f7;}</style></defs><g id="Layer_1-2"><circle class="cls-3" cx="188.31" cy="198.64" r="188.31"/><rect class="cls-1" x="196.05" y="161.68" width="29.13" height="125.34"/><path class="cls-1" d="M292.98,180.27c0,8.64-5.83,16.2-23.76,16.2h-71.7v90.45l39.93.04h31.77c31.31,0,56.58-10.8,56.58-44.49,0-9.5-6.48-28.29-24.19-33.69,14.04-6.26,19.65-17.49,19.65-29.16,0-30.45-22.24-43.84-52.05-43.84h-52.1l-21.1,25.92h73.2c18.14,0,23.76,11.66,23.76,18.57ZM269.23,260.4h-43.62v-38.87h43.62c11.66,0,28.29,7.13,28.29,20.73s-16.63,18.14-28.29,18.14Z"/><path class="cls-1" d="M161.53,204.09c-2.45-1.39-5.04-2.54-7.74-3.45l-19.21,23.6h5.26s0,0,0,0c1.64,0,3.23.24,4.75.65,7.85,2.11,13.66,9.26,13.66,17.77,0,10.16-8.26,18.42-18.42,18.42h-35.25l-21.07,25.88h56.32c24.37,0,44.3-19.93,44.3-44.3,0-12.22-5.02-23.32-13.09-31.36-2.82-2.81-6.03-5.24-9.52-7.21Z"/><path class="cls-1" d="M94.26,224.08l20.94-25.72h-17.28c-10.16,0-18.42-8.26-18.42-18.42s8.26-18.42,18.42-18.42h47.27l20.95-25.73h-20.18s-51.45,0-51.45,0c-22.79,1.76-40.89,20.94-40.89,44.15h0c0,12.22,5.02,23.32,13.09,31.36,7.21,7.18,16.86,11.89,27.55,12.78Z"/><rect class="cls-2" x="264.72" y="127.74" width="9.86" height="163.52"/><path class="cls-4" d="M269.22,52.14c-1.24-1.81-4.41-5.88-10.13-8.31-6-2.55-11.38-1.83-13.53-1.42,4.66-11.32,9.32-22.63,13.97-33.95,3.32-3.29,9.07-4.11,14.32-2.07,5.47,2.13,9.29,6.94,9.33,11.81-4.66,11.32-9.32,22.63-13.97,33.95Z"/><path class="cls-2" d="M268.04,5.27c1.91,0,3.9.36,5.81,1.11,5.47,2.13,9.29,6.94,9.33,11.81-4.66,11.32-9.32,22.63-13.97,33.95-1.24-1.81-4.41-5.88-10.13-8.31-3.39-1.44-6.58-1.84-9.1-1.84-1.95,0-3.49.24-4.43.41,4.66-11.32,9.32-22.63,13.97-33.95,2.1-2.09,5.19-3.18,8.51-3.18M268.04,0h0c-4.82,0-9.15,1.67-12.22,4.71l-.76.75-.41.99-5.91,14.35-8.07,19.59-3.71,9,9.56-1.82c1.12-.21,2.28-.32,3.44-.32,2.46,0,4.82.48,7.04,1.42,3.98,1.69,6.47,4.44,7.84,6.45l5.51,8.02,3.71-9,6.99-16.97,6.99-16.97.41-.99v-1.07c-.08-7.05-5.18-13.75-12.71-16.67-2.5-.97-5.1-1.47-7.72-1.47h0Z"/><path class="cls-4" d="M267.07,310.06c-3.71,22.39-7.42,44.78-11.12,67.17-3.75-22.44-7.5-44.89-11.26-67.33.05-82.5.1-164.99.15-247.49h22.44c-.07,82.55-.14,165.1-.22,247.66Z"/><path class="cls-5" d="M235.27,65.11l-64.08,78.72c-38.51,47.45-77.03,94.89-115.54,142.34,5.42,5.24,10.84,10.47,16.26,15.71,43.06-52.68,86.12-105.37,129.18-158.05,17.57-21.56,35.14-43.13,52.71-64.69"/><rect class="cls-3" x="7.3" y="175.66" width="282.35" height="4.1" transform="translate(-83.07 180.9) rotate(-50.91)"/><rect class="cls-3" x="17.54" y="185.73" width="284.25" height="4.1" transform="translate(-86.76 192.88) rotate(-50.81)"/><rect class="cls-4" x="-1.74" y="174.02" width="291.22" height="4.69" transform="translate(-83.73 176.56) rotate(-50.84)"/><rect class="cls-4" x="13.89" y="189.9" width="296.76" height="4.69" transform="translate(-89.24 197.64) rotate(-51.06)"/><path class="cls-3" d="M251.04,93.27c-17.93,0-32.52-14.59-32.52-32.52s14.59-32.52,32.52-32.52,32.52,14.59,32.52,32.52h-8.79c0-13.08-10.64-23.73-23.73-23.73s-23.73,10.65-23.73,23.73,10.65,23.73,23.73,23.73c6.47,0,12.52-2.56,17.03-7.21l6.31,6.12c-6.18,6.37-14.47,9.87-23.34,9.87Z"/><path class="cls-4" d="M251.11,86.8c-14.39,0-26.09-11.7-26.09-26.09s11.7-26.09,26.09-26.09,26.09,11.7,26.09,26.09h-7.62c0-10.19-8.29-18.47-18.47-18.47s-18.47,8.29-18.47,18.47,8.29,18.47,18.47,18.47c5.04,0,9.75-1.99,13.26-5.61l5.47,5.3c-4.96,5.11-11.61,7.92-18.73,7.92Z"/><circle class="cls-4" cx="251.02" cy="60.61" r="15.22"/><path class="cls-3" d="M251.02,79.64c-10.49,0-19.03-8.54-19.03-19.03s8.54-19.03,19.03-19.03,19.03,8.54,19.03,19.03-8.54,19.03-19.03,19.03ZM251.02,49.2c-6.29,0-11.41,5.12-11.41,11.41s5.12,11.41,11.41,11.41,11.41-5.12,11.41-11.41-5.12-11.41-11.41-11.41Z"/><path class="cls-4" d="M274.06,67.85c-5.09,1.88-10.18,3.76-15.27,5.65l12.12,10.47c1.05-5.37,2.1-10.75,3.15-16.12Z"/></g></svg>
