<?xml version="1.0" encoding="UTF-8"?><svg id="Layer_2" xmlns="http://www.w3.org/2000/svg" viewBox="0 0 446.17 155.43"><defs><style>.cls-1,.cls-2{fill:#f7550a;}.cls-1,.cls-3,.cls-4,.cls-5,.cls-6{stroke-width:0px;}.cls-2{font-family:Osiris, Osiris;font-size:85.96px;letter-spacing:.01em;}.cls-3{fill:#001760;}.cls-4{fill:#000662;}.cls-5{fill:#fff;}.cls-6{fill:#f7f7f7;}</style></defs><g id="Layer_1-2"><text class="cls-2" transform="translate(13.55 114.31)"><tspan x="0" y="0">S</tspan></text><circle class="cls-4" cx="75.64" cy="79.79" r="75.64"/><rect class="cls-1" x="78.75" y="64.94" width="11.7" height="50.35"/><path class="cls-1" d="M117.68,72.41c0,3.47-2.34,6.51-9.54,6.51h-28.8v36.33l16.04.02h12.76c12.58,0,22.73-4.34,22.73-17.87,0-3.82-2.6-11.36-9.72-13.53,5.64-2.52,7.89-7.03,7.89-11.71,0-12.23-8.93-17.61-20.91-17.61h-20.93l-8.47,10.41h29.4c7.29,0,9.54,4.68,9.54,7.46ZM108.14,104.59h-17.52v-15.61h17.52c4.68,0,11.36,2.86,11.36,8.33s-6.68,7.29-11.36,7.29Z"/><path class="cls-1" d="M64.88,81.98c-.98-.56-2.02-1.02-3.11-1.39l-7.72,9.48h2.11s0,0,0,0c.66,0,1.3.1,1.91.26,3.15.85,5.49,3.72,5.49,7.14,0,4.08-3.32,7.4-7.4,7.4h-14.16l-8.46,10.4h22.62c9.79,0,17.79-8.01,17.79-17.79,0-4.91-2.01-9.37-5.26-12.6-1.13-1.13-2.42-2.1-3.82-2.9Z"/><path class="cls-1" d="M37.86,90.01l8.41-10.33h-6.94c-4.08,0-7.4-3.32-7.4-7.4s3.32-7.4,7.4-7.4h18.99l8.41-10.34h-8.11s-20.67,0-20.67,0c-9.15.71-16.42,8.41-16.42,17.74h0c0,4.91,2.01,9.37,5.26,12.6,2.9,2.88,6.77,4.78,11.07,5.13Z"/><path class="cls-1" d="M173.75,89.14c-3.3,0-6.31-.81-9.02-2.43-2.71-1.62-4.88-3.79-6.51-6.51-1.62-2.71-2.43-5.74-2.43-9.07s.81-6.31,2.43-9.02c1.62-2.71,3.79-4.88,6.51-6.51,2.71-1.62,5.72-2.43,9.02-2.43h34.96v12h-34.96c-1.65,0-3.06.58-4.22,1.74-1.16,1.16-1.74,2.57-1.74,4.22s.58,3.1,1.74,4.26c1.16,1.16,2.57,1.74,4.22,1.74h19.01c3.3,0,6.31.81,9.02,2.43,2.71,1.62,4.88,3.8,6.51,6.53,1.62,2.73,2.43,5.74,2.43,9.04s-.81,6.31-2.43,9.02c-1.62,2.71-3.79,4.88-6.51,6.51-2.71,1.62-5.72,2.43-9.02,2.43h-35.97v-12h35.97c1.65,0,3.06-.58,4.22-1.74,1.16-1.16,1.74-2.57,1.74-4.22s-.58-3.06-1.74-4.24c-1.16-1.18-2.57-1.76-4.22-1.76h-19.01Z"/><path class="cls-1" d="M232.48,113.1v-47.93h-20.48v-12h52.93v12h-20.48v47.93h-11.96Z"/><path class="cls-1" d="M350.07,113.1c-6.41,0-12.06-2.34-16.96-7.01-4.67-4.9-7.01-10.55-7.01-16.96v-35.97h12v35.97c0,3.3,1.17,6.12,3.5,8.46,2.34,2.34,5.16,3.5,8.46,3.5h8.31c3.3,0,6.12-1.17,8.46-3.5,2.34-2.34,3.5-5.16,3.5-8.46v-35.97h12v35.97c0,6.41-2.34,12.06-7.01,16.96-4.9,4.67-10.55,7.01-16.96,7.01h-8.31Z"/><rect class="cls-3" x="106.33" y="51.31" width="3.96" height="65.68"/><path class="cls-5" d="M108.14,20.94c-.5-.73-1.77-2.36-4.07-3.34-2.41-1.02-4.57-.73-5.43-.57,1.87-4.55,3.74-9.09,5.61-13.64,1.33-1.32,3.64-1.65,5.75-.83,2.2.85,3.73,2.79,3.75,4.74-1.87,4.55-3.74,9.09-5.61,13.64Z"/><path class="cls-3" d="M107.66,2.12c.77,0,1.56.15,2.34.45,2.2.85,3.73,2.79,3.75,4.74-1.87,4.55-3.74,9.09-5.61,13.64-.5-.73-1.77-2.36-4.07-3.34-1.36-.58-2.64-.74-3.65-.74-.78,0-1.4.1-1.78.17,1.87-4.55,3.74-9.09,5.61-13.64.85-.84,2.08-1.28,3.42-1.28M107.66,0h0c-1.93,0-3.68.67-4.91,1.89l-.3.3-.16.4-2.37,5.77-3.24,7.87-1.49,3.62,3.84-.73c.45-.09.92-.13,1.38-.13.99,0,1.94.19,2.83.57,1.6.68,2.6,1.78,3.15,2.59l2.21,3.22,1.49-3.62,2.81-6.82,2.81-6.82.16-.4v-.43c-.03-2.83-2.08-5.52-5.1-6.7-1.01-.39-2.05-.59-3.1-.59h0Z"/><path class="cls-5" d="M107.27,124.54c-1.49,8.99-2.98,17.99-4.47,26.98-1.51-9.02-3.01-18.03-4.52-27.05.02-33.14.04-66.27.06-99.41h9.02c-.03,33.16-.06,66.32-.09,99.48Z"/><path class="cls-6" d="M94.5,26.15l-25.74,31.62c-15.47,19.06-30.94,38.12-46.41,57.17,2.18,2.1,4.35,4.21,6.53,6.31,17.3-21.16,34.59-42.32,51.89-63.48,7.06-8.66,14.12-17.32,21.17-25.98"/><rect class="cls-4" x="2.93" y="70.56" width="113.41" height="1.65" transform="translate(-33.37 72.66) rotate(-50.91)"/><rect class="cls-4" x="7.05" y="74.6" width="114.18" height="1.65" transform="translate(-34.85 77.48) rotate(-50.81)"/><rect class="cls-5" x="-.7" y="69.9" width="116.98" height="1.88" transform="translate(-33.63 70.92) rotate(-50.84)"/><rect class="cls-5" x="5.58" y="76.28" width="119.2" height="1.88" transform="translate(-35.85 79.39) rotate(-51.06)"/><path class="cls-4" d="M100.84,37.47c-7.2,0-13.06-5.86-13.06-13.06s5.86-13.06,13.06-13.06,13.06,5.86,13.06,13.06h-3.53c0-5.26-4.28-9.53-9.53-9.53s-9.53,4.28-9.53,9.53,4.28,9.53,9.53,9.53c2.6,0,5.03-1.03,6.84-2.89l2.53,2.46c-2.48,2.56-5.81,3.97-9.37,3.97Z"/><path class="cls-5" d="M100.86,34.87c-5.78,0-10.48-4.7-10.48-10.48s4.7-10.48,10.48-10.48,10.48,4.7,10.48,10.48h-3.06c0-4.09-3.33-7.42-7.42-7.42s-7.42,3.33-7.42,7.42,3.33,7.42,7.42,7.42c2.02,0,3.92-.8,5.33-2.25l2.2,2.13c-1.99,2.05-4.66,3.18-7.52,3.18Z"/><circle class="cls-5" cx="100.83" cy="24.35" r="6.11"/><path class="cls-4" d="M100.83,31.99c-4.21,0-7.64-3.43-7.64-7.64s3.43-7.64,7.64-7.64,7.64,3.43,7.64,7.64-3.43,7.64-7.64,7.64ZM100.83,19.76c-2.53,0-4.58,2.06-4.58,4.58s2.06,4.58,4.58,4.58,4.58-2.06,4.58-4.58-2.06-4.58-4.58-4.58Z"/><path class="cls-5" d="M110.08,27.25c-2.04.76-4.09,1.51-6.13,2.27l4.87,4.21c.42-2.16.84-4.32,1.27-6.47Z"/><path class="cls-1" d="M319.18,85.19c2.04-2.97,3.06-6.31,3.06-10.03v-4.03c0-3.3-.81-6.31-2.43-9.02-1.62-2.71-3.79-4.88-6.51-6.51-2.71-1.62-5.72-2.43-9.02-2.43h-35.97v12h32.53v-3.01l16.16,10.79-11.95,7.98v.15c-.08,0-.17.02-.25.02l-3.95,2.64v-2.62h-26.53c-1.65,0-3.06.59-4.24,1.76-1.18,1.18-1.76,2.59-1.76,4.24v25.98h12v-19.98h18.22l9.7,19.98h13.31l-10.37-21.36c3.3-1.4,5.97-3.58,8.02-6.55Z"/><path class="cls-1" d="M446.17,106.9l-16.16-10.79v4.99h-19.37c-3.3,0-6.12-1.17-8.46-3.5-2.34-2.34-3.5-5.16-3.5-8.46v-12c0-3.3,1.17-6.12,3.5-8.46,2.34-2.34,5.16-3.5,8.46-3.5h25.98v-12h-25.98c-6.41,0-12.06,2.34-16.96,7.01-4.67,4.9-7.01,10.55-7.01,16.96v12c0,6.41,2.34,12.06,7.01,16.96,4.9,4.67,10.55,7.01,16.96,7.01h19.37v4.58l16.16-10.79Z"/></g></svg>
